<?xml version="1.0" encoding="UTF-8" standalone="no"?>
<!-- Created with Inkscape (http://www.inkscape.org/) -->

<svg
   xmlns:dc="http://purl.org/dc/elements/1.1/"
   xmlns:cc="http://creativecommons.org/ns#"
   xmlns:rdf="http://www.w3.org/1999/02/22-rdf-syntax-ns#"
   xmlns:svg="http://www.w3.org/2000/svg"
   xmlns="http://www.w3.org/2000/svg"
   xmlns:sodipodi="http://sodipodi.sourceforge.net/DTD/sodipodi-0.dtd"
   xmlns:inkscape="http://www.inkscape.org/namespaces/inkscape"
   width="619"
   height="229"
   id="svg2"
   version="1.1"
   inkscape:version="0.48.3.1 r9886"
   sodipodi:docname="pygmynote.svg"
   inkscape:export-filename="/home/dmpop/pygmynote.png"
   inkscape:export-xdpi="72.70742"
   inkscape:export-ydpi="72.70742">
  <defs
     id="defs4" />
  <sodipodi:namedview
     id="base"
     pagecolor="#ffffff"
     bordercolor="#666666"
     borderopacity="1.0"
     inkscape:pageopacity="1"
     inkscape:pageshadow="2"
     inkscape:zoom="1"
     inkscape:cx="329.10976"
     inkscape:cy="122.11236"
     inkscape:document-units="px"
     inkscape:current-layer="text3009"
     showgrid="false"
     inkscape:window-width="1024"
     inkscape:window-height="720"
     inkscape:window-x="0"
     inkscape:window-y="0"
     inkscape:window-maximized="1"
     showguides="true"
     inkscape:guide-bbox="true"
     fit-margin-top="0"
     fit-margin-left="0"
     fit-margin-right="0"
     fit-margin-bottom="0" />
  <metadata
     id="metadata7">
    <rdf:RDF>
      <cc:Work
         rdf:about="">
        <dc:format>image/svg+xml</dc:format>
        <dc:type
           rdf:resource="http://purl.org/dc/dcmitype/StillImage" />
        <dc:title></dc:title>
      </cc:Work>
    </rdf:RDF>
  </metadata>
  <g
     inkscape:label="Layer 1"
     inkscape:groupmode="layer"
     id="layer1"
     transform="translate(-91.1829,-604.40257)">
    <g
       style="font-size:119.41140747px;font-style:normal;font-weight:normal;line-height:125%;letter-spacing:0px;word-spacing:0px;fill:#000000;fill-opacity:1;stroke:none;font-family:Sans"
       id="text3009">
      <path
         d="m 152.36716,766.04319 c -5e-5,-2.30859 -0.47769,-4.4978 -1.43294,-6.56763 -0.87573,-2.06976 -2.10964,-3.86093 -3.70175,-5.37352 -1.59219,-1.59211 -3.42317,-2.82602 -5.49292,-3.70175 -2.06984,-0.95525 -4.29885,-1.43289 -6.68704,-1.43294 -3.10473,5e-5 -5.9706,0.5573 -8.59762,1.67176 -2.62708,1.03495 -4.85609,2.42808 -6.68704,4.1794 l 0,22.21052 c 1.83095,2.06982 4.05996,3.70177 6.68704,4.89587 2.62702,1.11452 5.49289,1.67177 8.59762,1.67176 2.38819,10e-6 4.6172,-0.43783 6.68704,-1.31352 2.06975,-0.95528 3.90073,-2.229 5.49292,-3.82117 1.59211,-1.59213 2.82602,-3.46291 3.70175,-5.61233 0.95525,-2.14939 1.43289,-4.4182 1.43294,-6.80645 m 11.94114,0 c -6e-5,4.06001 -0.79614,7.88117 -2.38823,11.46349 -1.5126,3.58236 -3.6222,6.72685 -6.3288,9.4335 -2.6271,2.62706 -5.7318,4.73666 -9.31409,6.32881 -3.50278,1.51254 -7.24433,2.26881 -11.22467,2.26881 -2.7863,0 -5.49296,-0.39804 -8.11998,-1.19411 -2.54746,-0.71647 -4.93569,-1.75137 -7.16468,-3.1047 l 0,29.97227 -11.94114,0 0,-83.58799 11.94114,0 0,3.22411 c 2.3086,-1.19406 4.73663,-2.10955 7.28409,-2.74646 2.54742,-0.71642 5.25407,-1.07465 8.11998,-1.07471 3.98034,6e-5 7.7219,0.79614 11.22467,2.38823 3.5823,1.5126 6.68699,3.5824 9.31409,6.20939 2.627,2.6271 4.69679,5.69199 6.20939,9.19468 1.59209,3.50277 2.38817,7.24433 2.38823,11.22468"
         style="font-variant:normal;font-stretch:normal;text-align:start;line-height:125%;writing-mode:lr-tb;text-anchor:start;font-family:Railway;-inkscape-font-specification:Railway"
         id="path2991"
         inkscape:connector-curvature="0"
         sodipodi:nodetypes="cccccccccscsccccccsccccccccccccc" />
      <path
         d="m 229.92428,737.62327 -37.13695,70.0945 c -2.30865,4.3784 -5.65217,7.88113 -10.03056,10.5082 -4.37843,2.70663 -9.03547,4.05996 -13.97114,4.05999 l 0,-11.94114 c 2.78626,-2e-5 5.41331,-0.75629 7.88116,-2.26882 2.46782,-1.51256 4.3784,-3.50274 5.73174,-5.97057 l 8.3588,-16.00113 -25.1958,-48.48103 13.49349,0 18.50876,35.5846 19.10583,-35.5846 13.25467,0"
         style="font-variant:normal;font-stretch:normal;text-align:start;line-height:125%;writing-mode:lr-tb;text-anchor:start;font-family:Railway;-inkscape-font-specification:Railway"
         id="path2993" />
      <path
         d="m 273.01737,804.01601 c -5e-5,-2.38823 -1.6718,-4.45803 -5.01528,-6.20939 -3.26395,-1.67176 -7.52295,-2.74646 -12.77702,-3.22411 -4.06001,1.11451 -7.24431,2.42803 -9.55291,3.94058 -2.22903,1.59214 -3.34354,3.34351 -3.34352,5.2541 -2e-5,2.06979 1.43292,3.82115 4.29881,5.2541 2.94546,1.51253 6.6074,2.2688 10.98585,2.26882 4.37838,-2e-5 8.04033,-0.71649 10.98585,-2.14941 2.94543,-1.43295 4.41817,-3.14451 4.41822,-5.13469 m -6.44822,-44.30163 c 0.55722,-1.27368 0.83584,-2.62701 0.83588,-4.05999 -4e-5,-1.43289 -0.27866,-2.74642 -0.83588,-3.94057 -0.55729,-1.27368 -1.31356,-2.34838 -2.26881,-3.22411 -0.87572,-0.95525 -1.95042,-1.71152 -3.22411,-2.26882 -1.19415,-0.5572 -2.46787,-0.83583 -3.82117,-0.83588 -1.43296,5e-5 -2.78629,0.27868 -4.05999,0.83588 -1.19413,0.5573 -2.26883,1.31357 -3.2241,2.26882 -0.87571,0.87573 -1.59218,1.95043 -2.14941,3.22411 -0.47766,1.19415 -0.71649,2.50768 -0.71647,3.94057 -2e-5,1.43298 0.23881,2.78631 0.71647,4.05999 0.55723,1.27376 1.2737,2.38826 2.14941,3.34352 0.95527,0.87571 2.02997,1.59218 3.2241,2.14941 1.2737,0.55728 2.62703,0.8359 4.05999,0.83588 1.3533,2e-5 2.62702,-0.2786 3.82117,-0.83588 1.27369,-0.55723 2.34839,-1.2737 3.22411,-2.14941 0.95525,-0.95526 1.71152,-2.06976 2.26881,-3.34352 m 18.98642,44.30163 c -6e-5,2.70665 -0.71653,5.21429 -2.14941,7.52292 -1.43299,2.38821 -3.42318,4.4182 -5.97057,6.08998 -2.46788,1.75135 -5.41336,3.10467 -8.83644,4.05999 -3.34356,1.03487 -6.9657,1.55232 -10.86644,1.55235 -3.98041,-3e-5 -7.68216,-0.35826 -11.10526,-1.0747 -3.34354,-0.7165 -6.28902,-1.87081 -8.83645,-3.46293 -2.54745,-1.59218 -4.53764,-3.62217 -5.97057,-6.08999 -1.43294,-2.46785 -2.1494,-5.45313 -2.1494,-8.95585 0.63686,-3.50274 2.02999,-6.52783 4.1794,-9.07527 2.14939,-2.46783 4.77644,-4.2988 7.88115,-5.49292 -1.27373,-1.35333 -2.38824,-2.90567 -3.34352,-4.65705 -0.87569,-1.83096 -1.31353,-3.78135 -1.31353,-5.85116 0,-1.59213 0.27862,-3.14448 0.83588,-4.65704 0.63686,-1.51252 1.51254,-2.82605 2.62706,-3.94058 -3.58236,-3.82114 -5.37352,-8.55778 -5.37352,-14.20996 0,-3.02504 0.55725,-5.89091 1.67176,-8.59762 1.19411,-2.70661 2.78626,-5.05503 4.77646,-7.04527 1.99017,-2.06974 4.3386,-3.7017 7.04527,-4.89587 2.70664,-1.19405 5.57251,-1.79111 8.59762,-1.79117 2.30859,6e-5 4.5376,0.3583 6.68704,1.0747 2.22898,0.71653 4.25897,1.75143 6.08998,3.1047 -4e-5,6e-5 4.53759,6e-5 13.6129,0 l 0,11.34408 -4.89586,0 c 0.39798,1.11455 0.67661,2.22906 0.83588,3.34352 0.23877,1.03494 0.35818,2.10964 0.35823,3.22411 -5e-5,2.7863 -0.4777,5.41335 -1.43294,7.88115 -0.95534,2.46787 -2.22906,4.65708 -3.82116,6.56763 -1.5922,1.91061 -3.46298,3.46295 -5.61234,4.65705 -2.14944,1.19413 -4.45806,1.9504 -6.92586,2.26881 -0.39807,0.0796 -0.79611,0.11943 -1.19411,0.11941 l -1.07471,0 c -2.8659,0 -5.37354,-0.2786 -7.52292,-0.83587 -0.55727,0.31844 -1.03492,0.59707 -1.43293,0.83587 -0.31845,0.23884 -0.47767,0.55727 -0.47765,0.9553 -2e-5,0.71648 0.1592,1.31354 0.47765,1.79117 0.31841,0.47766 0.83585,0.87569 1.55235,1.19411 0.71644,0.31844 1.67173,0.63687 2.86587,0.95529 l 4.29881,1.31353 c 3.34349,0.63687 6.56759,1.43294 9.67232,2.38823 3.10466,0.9553 5.85112,2.22902 8.23939,3.82116 2.38818,1.59216 4.29876,3.54254 5.73175,5.85116 1.51249,2.38823 2.26876,5.2939 2.26882,8.71703"
         style="font-variant:normal;font-stretch:normal;text-align:start;line-height:125%;writing-mode:lr-tb;text-anchor:start;font-family:Railway;-inkscape-font-specification:Railway"
         id="path2995"
         inkscape:connector-curvature="0"
         sodipodi:nodetypes="ccccccscccccccccccccccccsccccccccsccccsccscccccccccccccsccscccccccsccc" />
      <path
         d="m 383.84718,794.34369 -11.94114,0 0,-33.67402 c -8e-5,-1.51251 -0.35832,-2.94544 -1.0747,-4.29881 -0.63695,-1.4329 -1.55243,-2.66681 -2.74647,-3.70175 -1.19419,-1.03486 -2.58732,-1.83093 -4.17939,-2.38823 -1.59223,-0.63682 -3.30379,-0.95525 -5.1347,-0.95529 -2.54751,4e-5 -4.97554,0.67671 -7.28409,2.02999 -2.30868,1.35337 -4.37848,3.18435 -6.20939,5.49293 l 0,37.49518 -11.94114,0 0,-33.67402 c -5e-5,-1.51251 -0.35828,-2.94544 -1.07471,-4.29881 -0.6369,-1.4329 -1.55239,-2.66681 -2.74646,-3.70175 -1.19415,-1.03486 -2.58729,-1.83093 -4.1794,-2.38823 -1.59219,-0.63682 -3.30375,-0.95525 -5.13469,-0.95529 -2.70669,4e-5 -5.21432,0.43788 -7.52292,1.31352 -2.22903,0.87573 -4.09981,2.06984 -5.61233,3.58235 l 0,40.12223 -12.17997,0 0,-56.72042 12.29938,0 0,3.46293 c 2.14938,-1.27367 4.458,-2.26876 6.92586,-2.98528 2.46781,-0.71642 5.05505,-1.07465 7.76174,-1.07471 3.42309,6e-5 6.6472,0.79614 9.67232,2.38823 3.02505,1.59221 5.6521,3.662 7.88116,6.20939 3.18425,-2.7066 6.52776,-4.8162 10.03056,-6.3288 3.50267,-1.51249 7.16461,-2.26876 10.98584,-2.26882 3.10463,6e-5 6.0501,0.63692 8.83645,1.91059 2.86579,1.27377 5.37343,2.98533 7.52292,5.13469 2.14931,2.14945 3.86087,4.65709 5.13469,7.52292 1.27363,2.86591 1.91049,5.89099 1.91058,9.07526 l 0,33.67402"
         style="font-variant:normal;font-stretch:normal;text-align:start;line-height:125%;writing-mode:lr-tb;text-anchor:start;font-family:Railway;-inkscape-font-specification:Railway"
         id="path2997" />
      <path
         d="m 454.4183,737.62327 -37.13695,70.0945 c -2.30864,4.3784 -5.65216,7.88113 -10.03055,10.5082 -4.37844,2.70663 -9.03548,4.05996 -13.97114,4.05999 l 0,-11.94114 c 2.78626,-2e-5 5.41331,-0.75629 7.88115,-2.26882 2.46782,-1.51256 4.3784,-3.50274 5.73175,-5.97057 l 8.3588,-16.00113 -25.19581,-48.48103 13.49349,0 18.50877,35.5846 19.10583,-35.5846 13.25466,0"
         style="font-variant:normal;font-stretch:normal;text-align:start;line-height:125%;writing-mode:lr-tb;text-anchor:start;font-family:Railway;-inkscape-font-specification:Railway"
         id="path2999" />
      <path
         d="m 513.64666,794.34369 -11.94114,0 0,-34.03225 c -5e-5,-1.51251 -0.35828,-2.94545 -1.07471,-4.29881 -0.6369,-1.4329 -1.55239,-2.66682 -2.74646,-3.70176 -1.19415,-1.03485 -2.58729,-1.83093 -4.1794,-2.38822 -1.59219,-0.63682 -3.30375,-0.95525 -5.13469,-0.9553 -3.02512,5e-5 -5.81138,0.47769 -8.3588,1.43294 -2.54746,0.95534 -4.61726,2.22906 -6.20939,3.82117 l 0,40.12223 -11.94114,0 0,-56.72042 11.94114,0 0,3.46293 c 2.14938,-1.27367 4.458,-2.26876 6.92586,-2.98528 2.46781,-0.71642 5.05505,-1.07465 7.76174,-1.07471 3.34349,6e-5 6.48798,0.63692 9.4335,1.91059 3.02505,1.19416 5.6919,2.86592 8.00057,5.01528 2.30857,2.14945 4.13954,4.65709 5.49292,7.52291 1.35328,2.78631 2.02994,5.73179 2.03,8.83645 l 0,34.03225"
         style="font-variant:normal;font-stretch:normal;text-align:start;line-height:125%;writing-mode:lr-tb;text-anchor:start;font-family:Railway;-inkscape-font-specification:Railway"
         id="path3001" />
      <path
         d="m 568.69655,766.04319 c -5e-5,-2.30859 -0.4777,-4.4978 -1.43294,-6.56763 -0.87573,-2.06976 -2.10965,-3.86093 -3.70175,-5.37352 -1.5922,-1.59211 -3.42317,-2.82602 -5.49293,-3.70175 -2.06983,-0.95525 -4.29884,-1.43289 -6.68703,-1.43294 -2.38826,5e-5 -4.65708,0.47769 -6.80645,1.43294 -2.06983,0.87573 -3.9008,2.10964 -5.49293,3.70175 -1.51256,1.51259 -2.74648,3.34356 -3.70175,5.49293 -0.8757,2.06983 -1.31354,4.25904 -1.31353,6.56763 -10e-6,2.38825 0.43783,4.65707 1.31353,6.80645 0.95527,2.14942 2.18919,4.0202 3.70175,5.61233 1.59213,1.51256 3.4231,2.74648 5.49293,3.70176 2.14937,0.87569 4.41819,1.31353 6.80645,1.31352 2.38819,10e-6 4.6172,-0.43783 6.68703,-1.31352 2.06976,-0.95528 3.90073,-2.229 5.49293,-3.82117 1.5921,-1.59213 2.82602,-3.46291 3.70175,-5.61233 0.95524,-2.14939 1.43289,-4.4182 1.43294,-6.80645 m 11.94114,0 c -6e-5,4.06001 -0.79614,7.88117 -2.38823,11.46349 -1.5126,3.58236 -3.6222,6.72685 -6.3288,9.4335 -2.6271,2.62706 -5.7318,4.73666 -9.31409,6.32881 -3.50278,1.51254 -7.24433,2.26881 -11.22467,2.26881 -4.06002,0 -7.88118,-0.75627 -11.4635,-2.26881 -3.50275,-1.59215 -6.56764,-3.70175 -9.19468,-6.32881 -2.62706,-2.70665 -4.73666,-5.85114 -6.3288,-9.4335 -1.51255,-3.58232 -2.26882,-7.40348 -2.26882,-11.46349 0,-3.98035 0.75627,-7.72191 2.26882,-11.22468 1.59214,-3.50269 3.70174,-6.56758 6.3288,-9.19468 2.70665,-2.62699 5.81134,-4.69679 9.31409,-6.20939 3.58232,-1.59209 7.40348,-2.38817 11.4635,-2.38823 3.98034,6e-5 7.72189,0.79614 11.22467,2.38823 3.58229,1.5126 6.68699,3.5824 9.31409,6.20939 2.62699,2.6271 4.69679,5.69199 6.20939,9.19468 1.59209,3.50277 2.38817,7.24433 2.38823,11.22468"
         style="font-variant:normal;font-stretch:normal;text-align:start;line-height:125%;writing-mode:lr-tb;text-anchor:start;font-family:Railway;-inkscape-font-specification:Railway"
         id="path3003" />
      <path
         d="m 634.37135,749.56441 -24.00169,0 0,23.52405 c -3e-5,3.10471 0.79605,5.65215 2.38823,7.64233 1.59212,1.9902 3.58231,2.98529 5.97057,2.98528 2.06976,1e-5 4.29877,-0.35822 6.68704,-1.0747 2.38818,-0.79606 4.49778,-1.87076 6.3288,-3.22411 l 0,12.06056 c -1.83102,1.27372 -3.94062,2.26881 -6.3288,2.98528 -2.38827,0.79608 -4.61728,1.19411 -6.68704,1.19411 -2.86591,0 -5.53276,-0.47764 -8.00056,-1.43293 -2.46786,-0.95529 -4.61727,-2.26882 -6.44822,-3.94058 -1.83099,-1.75136 -3.26393,-3.78135 -4.29881,-6.08998 -1.03491,-2.30861 -1.55236,-4.81625 -1.55235,-7.52292 l 0,-27.10639 -11.82173,0 0,-11.94114 11.82173,0 0,-11.34408 11.94114,0 0,11.34408 24.00169,0 0,11.94114"
         style="font-variant:normal;font-stretch:normal;text-align:start;line-height:125%;writing-mode:lr-tb;text-anchor:start;font-family:Railway;-inkscape-font-specification:Railway"
         id="path3005" />
      <path
         d="m 682.9709,756.01263 c -5e-5,-1.27368 -0.39809,-2.5076 -1.19411,-3.70176 -0.79613,-1.19407 -1.87083,-2.22897 -3.22411,-3.10469 -1.27377,-0.87564 -2.78631,-1.59211 -4.53764,-2.14941 -1.7514,-0.5572 -3.62218,-0.83583 -5.61233,-0.83588 -3.58237,5e-5 -6.80648,0.95534 -9.67233,2.86588 -2.86589,1.83101 -4.97549,4.13963 -6.3288,6.92586 l 30.56932,0 m 13.6129,11.46349 c -6e-5,3e-5 -15.04588,3e-5 -45.13751,0 0.47763,2.30865 1.31351,4.45805 2.50764,6.44822 1.2737,1.99021 2.78624,3.70177 4.53763,5.13469 1.83095,1.43295 3.90075,2.58726 6.20939,3.46293 2.30859,0.79609 4.73662,1.19412 7.2841,1.19411 4.13956,1e-5 8.00052,-0.67665 11.58291,-2.02999 3.6619,-1.35332 6.76659,-3.10468 9.31409,-5.2541 l 0,12.41878 c -3.26397,2.06981 -6.84631,3.70176 -10.74703,4.89587 -3.82121,1.19412 -7.80158,1.79117 -11.94114,1.79117 -4.29884,0 -8.35883,-0.83588 -12.17996,-2.50764 -3.74158,-1.67175 -7.00549,-3.94057 -9.79174,-6.80645 -2.78628,-2.86586 -5.01529,-6.20938 -6.68704,-10.03055 -1.59215,-3.90076 -2.38823,-8.00054 -2.38823,-12.29938 0,-3.98035 0.75627,-7.7219 2.26882,-11.22467 1.59214,-3.50269 3.70174,-6.56758 6.3288,-9.19468 2.70665,-2.627 5.81134,-4.69679 9.31409,-6.20939 3.58232,-1.5921 7.40348,-2.38817 11.4635,-2.38823 3.82113,6e-5 7.56268,0.59711 11.22467,1.79117 3.6619,1.19417 6.8462,3.10475 9.55291,5.73175 2.70661,2.6271 4.7366,6.01042 6.08999,10.14997 1.43287,4.13963 1.83091,9.1151 1.19411,14.92642"
         style="font-variant:normal;font-stretch:normal;text-align:start;line-height:125%;writing-mode:lr-tb;text-anchor:start;font-family:Railway;-inkscape-font-specification:Railway"
         id="path3007" />
    </g>
    <g
       id="g3017"
       transform="translate(-11.335887,-10.161292)">
      <rect
         style="fill:#ffcc00"
         y="655.06232"
         x="177.95328"
         height="60.297478"
         width="60.297478"
         id="rect2989" />
      <rect
         style="fill:#00ff00"
         y="655.06232"
         x="259.62894"
         height="60.297478"
         width="60.297478"
         id="rect2989-7" />
      <rect
         style="fill:#de8787"
         y="624.72516"
         x="218.46953"
         height="60.297478"
         width="60.297478"
         id="rect2989-2" />
    </g>
    <text
       xml:space="preserve"
       style="font-size:39.96548843px;font-style:normal;font-weight:normal;line-height:125%;letter-spacing:0px;word-spacing:0px;fill:#000000;fill-opacity:1;stroke:none;font-family:Sans"
       x="321.73535"
       y="704.73126"
       id="text2992-1"
       sodipodi:linespacing="125%"><tspan
         sodipodi:role="line"
         id="tspan2994-7"
         x="321.73535"
         y="704.73126"
         style="font-size:39.96548843px;font-style:normal;font-variant:normal;font-weight:normal;font-stretch:normal;text-align:start;line-height:125%;writing-mode:lr-tb;text-anchor:start;font-family:Open Sans;-inkscape-font-specification:Open Sans">github.com/dmpop/</tspan></text>
  </g>
</svg>
