<?xml version="1.0" encoding="UTF-8" standalone="no"?>
<!-- Created with Inkscape (http://www.inkscape.org/) -->

<svg
   xmlns:dc="http://purl.org/dc/elements/1.1/"
   xmlns:cc="http://creativecommons.org/ns#"
   xmlns:rdf="http://www.w3.org/1999/02/22-rdf-syntax-ns#"
   xmlns:svg="http://www.w3.org/2000/svg"
   xmlns="http://www.w3.org/2000/svg"
   xmlns:sodipodi="http://sodipodi.sourceforge.net/DTD/sodipodi-0.dtd"
   xmlns:inkscape="http://www.inkscape.org/namespaces/inkscape"
   width="619"
   height="229"
   id="svg2"
   version="1.1"
   inkscape:version="0.48.3.1 r9886"
   sodipodi:docname="pygmynote.svg"
   inkscape:export-filename="/home/dmpop/pygmynote.png"
   inkscape:export-xdpi="72.70742"
   inkscape:export-ydpi="72.70742">
  <defs
     id="defs4" />
  <sodipodi:namedview
     id="base"
     pagecolor="#ffffff"
     bordercolor="#666666"
     borderopacity="1.0"
     inkscape:pageopacity="1"
     inkscape:pageshadow="2"
     inkscape:zoom="1"
     inkscape:cx="329.10976"
     inkscape:cy="122.11236"
     inkscape:document-units="px"
     inkscape:current-layer="layer1"
     showgrid="false"
     inkscape:window-width="1024"
     inkscape:window-height="720"
     inkscape:window-x="0"
     inkscape:window-y="0"
     inkscape:window-maximized="1"
     showguides="true"
     inkscape:guide-bbox="true"
     fit-margin-top="0"
     fit-margin-left="0"
     fit-margin-right="0"
     fit-margin-bottom="0" />
  <metadata
     id="metadata7">
    <rdf:RDF>
      <cc:Work
         rdf:about="">
        <dc:format>image/svg+xml</dc:format>
        <dc:type
           rdf:resource="http://purl.org/dc/dcmitype/StillImage" />
        <dc:title />
      </cc:Work>
    </rdf:RDF>
  </metadata>
  <g
     inkscape:label="Layer 1"
     inkscape:groupmode="layer"
     id="layer1"
     transform="translate(-91.1829,-604.40257)">
    <g
       style="font-size:119.41140747px;font-style:normal;font-weight:normal;line-height:125%;letter-spacing:0px;word-spacing:0px;fill:#000000;fill-opacity:1;stroke:none;font-family:Sans"
       id="text3009">
      <path
         d="m 152.36716,766.04319 c -5e-5,-2.30859 -0.47769,-4.4978 -1.43294,-6.56763 -0.87573,-2.06976 -2.10964,-3.86093 -3.70175,-5.37352 -1.59219,-1.59211 -3.42317,-2.82602 -5.49292,-3.70175 -2.06984,-0.95525 -4.29885,-1.43289 -6.68704,-1.43294 -3.10473,5e-5 -5.9706,0.5573 -8.59762,1.67176 -2.62708,1.03495 -4.85609,2.42808 -6.68704,4.1794 l 0,22.21052 c 1.83095,2.06982 4.05996,3.70177 6.68704,4.89587 2.62702,1.11452 5.49289,1.67177 8.59762,1.67176 2.38819,10e-6 4.6172,-0.43783 6.68704,-1.31352 2.06975,-0.95528 3.90073,-2.229 5.49292,-3.82117 1.59211,-1.59213 2.82602,-3.46291 3.70175,-5.61233 0.95525,-2.14939 1.43289,-4.4182 1.43294,-6.80645 m 11.94114,0 c -6e-5,4.06001 -0.79614,7.88117 -2.38823,11.46349 -1.5126,3.58236 -3.6222,6.72685 -6.3288,9.4335 -2.6271,2.62706 -5.7318,4.73666 -9.31409,6.32881 -3.50278,1.51254 -7.24433,2.26881 -11.22467,2.26881 -2.7863,0 -5.49296,-0.39804 -8.11998,-1.19411 -2.54746,-0.71647 -4.93569,-1.75137 -7.16468,-3.1047 l 0,29.97227 -11.94114,0 0,-83.58799 11.94114,0 0,3.22411 c 2.3086,-1.19406 4.73663,-2.10955 7.28409,-2.74646 2.54742,-0.71642 5.25407,-1.07465 8.11998,-1.07471 3.98034,6e-5 7.7219,0.79614 11.22467,2.38823 3.5823,1.5126 6.68699,3.5824 9.31409,6.20939 2.627,2.6271 4.69679,5.69199 6.20939,9.19468 1.59209,3.50277 2.38817,7.24433 2.38823,11.22468"
         style="font-variant:normal;font-stretch:normal;text-align:start;line-height:125%;writing-mode:lr-tb;text-anchor:start;font-family:Railway;-inkscape-font-specification:Railway"
         id="path2991"
         inkscape:connector-curvature="0"
         sodipodi:nodetypes="cccccccccscsccccccsccccccccccccc" />
      <path
         d="m 229.92428,737.62327 -37.13695,70.0945 c -2.30865,4.3784 -5.65217,7.88113 -10.03056,10.5082 -4.37843,2.70663 -9.03547,4.05996 -13.97114,4.05999 l 0,-11.94114 c 2.78626,-2e-5 5.41331,-0.75629 7.88116,-2.26882 2.46782,-1.51256 4.3784,-3.50274 5.73174,-5.97057 l 8.3588,-16.00113 -25.1958,-48.48103 13.49349,0 18.50876,35.5846 19.10583,-35.5846 13.25467,0"
         style="font-variant:normal;font-stretch:normal;text-align:start;line-height:125%;writing-mode:lr-tb;text-anchor:start;font-family:Railway;-inkscape-font-specification:Railway"
         id="path2993" />
      <path
         d="m 273.01737,804.01601 c -5e-5,-2.38823 -1.6718,-4.45803 -5.01528,-6.20939 -3.26395,-1.67176 -7.52295,-2.74646 -12.77702,-3.22411 -4.06001,1.11451 -7.24431,2.42803 -9.55291,3.94058 -2.22903,1.59214 -3.34354,3.34351 -3.34352,5.2541 -2e-5,2.06979 1.43292,3.82115 4.29881,5.2541 2.94546,1.51253 6.6074,2.2688 10.98585,2.26882 4.37838,-2e-5 8.04033,-0.71649 10.98585,-2.14941 2.94543,-1.43295 4.41817,-3.14451 4.41822,-5.13469 m -6.44822,-44.30163 c 0.55722,-1.27368 0.83584,-2.62701 0.83588,-4.05999 -4e-5,-1.43289 -0.27866,-2.74642 -0.83588,-3.94057 -0.55729,-1.27368 -1.31356,-2.34838 -2.26881,-3.22411 -0.87572,-0.95525 -1.95042,-1.71152 -3.22411,-2.26882 -1.19415,-0.5572 -2.46787,-0.83583 -3.82117,-0.83588 -1.43296,5e-5 -2.78629,0.27868 -4.05999,0.83588 -1.19413,0.5573 -2.26883,1.31357 -3.2241,2.26882 -0.87571,0.87573 -1.59218,1.95043 -2.14941,3.22411 -0.47766,1.19415 -0.71649,2.50768 -0.71647,3.94057 -2e-5,1.43298 0.23881,2.78631 0.71647,4.05999 0.55723,1.27376 1.2737,2.38826 2.14941,3.34352 0.95527,0.87571 2.02997,1.59218 3.2241,2.14941 1.2737,0.55728 2.62703,0.8359 4.05999,0.83588 1.3533,2e-5 2.62702,-0.2786 3.82117,-0.83588 1.27369,-0.55723 2.34839,-1.2737 3.22411,-2.14941 0.95525,-0.95526 1.71152,-2.06976 2.26881,-3.34352 m 18.98642,44.30163 c -6e-5,2.70665 -0.71653,5.21429 -2.14941,7.52292 -1.43299,2.38821 -3.42318,4.4182 -5.97057,6.08998 -2.46788,1.75135 -5.41336,3.10467 -8.83644,4.05999 -3.34356,1.03487 -6.9657,1.55232 -10.86644,1.55235 -3.98041,-3e-5 -7.68216,-0.35826 -11.10526,-1.0747 -3.34354,-0.7165 -6.28902,-1.87081 -8.83645,-3.46293 -2.54745,-1.59218 -4.53764,-3.62217 -5.97057,-6.08999 -1.43294,-2.46785 -2.1494,-5.45313 -2.1494,-8.95585 0.63686,-3.50274 2.02999,-6.52783 4.1794,-9.07527 2.14939,-2.46783 4.77644,-4.2988 7.88115,-5.49292 -1.27373,-1.35333 -2.38824,-2.90567 -3.34352,-4.65705 -0.87569,-1.83096 -1.31353,-3.78135 -1.31353,-5.85116 0,-1.59213 0.27862,-3.14448 0.83588,-4.65704 0.63686,-1.51252 1.51254,-2.82605 2.62706,-3.94058 -3.58236,-3.82114 -5.37352,-8.55778 -5.37352,-14.20996 0,-3.02504 0.55725,-5.89091 1.67176,-8.59762 1.19411,-2.70661 2.78626,-5.05503 4.77646,-7.04527 1.99017,-2.06974 4.3386,-3.7017 7.04527,-4.89587 2.70664,-1.19405 5.57251,-1.79111 8.59762,-1.79117 2.30859,6e-5 4.5376,0.3583 6.68704,1.0747 2.22898,0.71653 4.25897,1.75143 6.08998,3.1047 -4e-5,6e-5 4.53759,6e-5 13.6129,0 l 0,11.34408 -4.89586,0 c 0.39798,1.11455 0.67661,2.22906 0.83588,3.34352 0.23877,1.03494 0.35818,2.10964 0.35823,3.22411 -5e-5,2.7863 -0.4777,5.41335 -1.43294,7.88115 -0.95534,2.46787 -2.22906,4.65708 -3.82116,6.56763 -1.5922,1.91061 -3.46298,3.46295 -5.61234,4.65705 -2.14944,1.19413 -4.45806,1.9504 -6.92586,2.26881 -0.39807,0.0796 -0.79611,0.11943 -1.19411,0.11941 l -1.07471,0 c -2.8659,0 -5.37354,-0.2786 -7.52292,-0.83587 -0.55727,0.31844 -1.03492,0.59707 -1.43293,0.83587 -0.31845,0.23884 -0.47767,0.55727 -0.47765,0.9553 -2e-5,0.71648 0.1592,1.31354 0.47765,1.79117 0.31841,0.47766 0.83585,0.87569 1.55235,1.19411 0.71644,0.31844 1.67173,0.63687 2.86587,0.95529 l 4.29881,1.31353 c 3.34349,0.63687 6.56759,1.43294 9.67232,2.38823 3.10466,0.9553 5.85112,2.22902 8.23939,3.82116 2.38818,1.59216 4.29876,3.54254 5.73175,5.85116 1.51249,2.38823 2.26876,5.2939 2.26882,8.71703"
         style="font-variant:normal;font-stretch:normal;text-align:start;line-height:125%;writing-mode:lr-tb;text-anchor:start;font-family:Railway;-inkscape-font-specification:Railway"
         id="path2995"
         inkscape:connector-curvature="0"
         sodipodi:nodetypes="ccccccscccccccccccccccccsccccccccsccccsccscccccccccccccsccscccccccsccc" />
      <path
         d="m 383.84718,794.34369 -11.94114,0 0,-33.67402 c -8e-5,-1.51251 -0.35832,-2.94544 -1.0747,-4.29881 -0.63695,-1.4329 -1.55243,-2.66681 -2.74647,-3.70175 -1.19419,-1.03486 -2.58732,-1.83093 -4.17939,-2.38823 -1.59223,-0.63682 -3.30379,-0.95525 -5.1347,-0.95529 -2.54751,4e-5 -4.97554,0.67671 -7.28409,2.02999 -2.30868,1.35337 -4.37848,3.18435 -6.20939,5.49293 l 0,37.49518 -11.94114,0 0,-33.67402 c -5e-5,-1.51251 -0.35828,-2.94544 -1.07471,-4.29881 -0.6369,-1.4329 -1.55239,-2.66681 -2.74646,-3.70175 -1.19415,-1.03486 -2.58729,-1.83093 -4.1794,-2.38823 -1.59219,-0.63682 -3.30375,-0.95525 -5.13469,-0.95529 -2.70669,4e-5 -5.21432,0.43788 -7.52292,1.31352 -2.22903,0.87573 -4.09981,2.06984 -5.61233,3.58235 l 0,40.12223 -12.17997,0 0,-56.72042 12.29938,0 0,3.46293 c 2.14938,-1.27367 4.458,-2.26876 6.92586,-2.98528 2.46781,-0.71642 5.05505,-1.07465 7.76174,-1.07471 3.42309,6e-5 6.6472,0.79614 9.67232,2.38823 3.02505,1.59221 5.6521,3.662 7.88116,6.20939 3.18425,-2.7066 6.52776,-4.8162 10.03056,-6.3288 3.50267,-1.51249 7.16461,-2.26876 10.98584,-2.26882 3.10463,6e-5 6.0501,0.63692 8.83645,1.91059 2.86579,1.27377 5.37343,2.98533 7.52292,5.13469 2.14931,2.14945 3.86087,4.65709 5.13469,7.52292 1.27363,2.86591 1.91049,5.89099 1.91058,9.07526 l 0,33.67402"
         style="font-variant:normal;font-stretch:normal;text-align:start;line-height:125%;writing-mode:lr-tb;text-anchor:start;font-family:Railway;-inkscape-font-specification:Railway"
         id="path2997" />
      <path
         d="m 454.4183,737.62327 -37.13695,70.0945 c -2.30864,4.3784 -5.65216,7.88113 -10.03055,10.5082 -4.37844,2.70663 -9.03548,4.05996 -13.97114,4.05999 l 0,-11.94114 c 2.78626,-2e-5 5.41331,-0.75629 7.88115,-2.26882 2.46782,-1.51256 4.3784,-3.50274 5.73175,-5.97057 l 8.3588,-16.00113 -25.19581,-48.48103 13.49349,0 18.50877,35.5846 19.10583,-35.5846 13.25466,0"
         style="font-variant:normal;font-stretch:normal;text-align:start;line-height:125%;writing-mode:lr-tb;text-anchor:start;font-family:Railway;-inkscape-font-specification:Railway"
         id="path2999" />
      <path
         d="m 513.64666,794.34369 -11.94114,0 0,-34.03225 c -5e-5,-1.51251 -0.35828,-2.94545 -1.07471,-4.29881 -0.6369,-1.4329 -1.55239,-2.66682 -2.74646,-3.70176 -1.19415,-1.03485 -2.58729,-1.83093 -4.1794,-2.38822 -1.59219,-0.63682 -3.30375,-0.95525 -5.13469,-0.9553 -3.02512,5e-5 -5.81138,0.47769 -8.3588,1.43294 -2.54746,0.95534 -4.61726,2.22906 -6.20939,3.82117 l 0,40.12223 -11.94114,0 0,-56.72042 11.94114,0 0,3.46293 c 2.14938,-1.27367 4.458,-2.26876 6.92586,-2.98528 2.46781,-0.71642 5.05505,-1.07465 7.76174,-1.07471 3.34349,6e-5 6.48798,0.63692 9.4335,1.91059 3.02505,1.19416 5.6919,2.86592 8.00057,5.01528 2.30857,2.14945 4.13954,4.65709 5.49292,7.52291 1.35328,2.78631 2.02994,5.73179 2.03,8.83645 l 0,34.03225"
         style="font-variant:normal;font-stretch:normal;text-align:start;line-height:125%;writing-mode:lr-tb;text-anchor:start;font-family:Railway;-inkscape-font-specification:Railway"
         id="path3001" />
      <path
         d="m 568.69655,766.04319 c -5e-5,-2.30859 -0.4777,-4.4978 -1.43294,-6.56763 -0.87573,-2.06976 -2.10965,-3.86093 -3.70175,-5.37352 -1.5922,-1.59211 -3.42317,-2.82602 -5.49293,-3.70175 -2.06983,-0.95525 -4.29884,-1.43289 -6.68703,-1.43294 -2.38826,5e-5 -4.65708,0.47769 -6.80645,1.43294 -2.06983,0.87573 -3.9008,2.10964 -5.49293,3.70175 -1.51256,1.51259 -2.74648,3.34356 -3.70175,5.49293 -0.8757,2.06983 -1.31354,4.25904 -1.31353,6.56763 -10e-6,2.38825 0.43783,4.65707 1.31353,6.80645 0.95527,2.14942 2.18919,4.0202 3.70175,5.61233 1.59213,1.51256 3.4231,2.74648 5.49293,3.70176 2.14937,0.87569 4.41819,1.31353 6.80645,1.31352 2.38819,10e-6 4.6172,-0.43783 6.68703,-1.31352 2.06976,-0.95528 3.90073,-2.229 5.49293,-3.82117 1.5921,-1.59213 2.82602,-3.46291 3.70175,-5.61233 0.95524,-2.14939 1.43289,-4.4182 1.43294,-6.80645 m 11.94114,0 c -6e-5,4.06001 -0.79614,7.88117 -2.38823,11.46349 -1.5126,3.58236 -3.6222,6.72685 -6.3288,9.4335 -2.6271,2.62706 -5.7318,4.73666 -9.31409,6.32881 -3.50278,1.51254 -7.24433,2.26881 -11.22467,2.26881 -4.06002,0 -7.88118,-0.75627 -11.4635,-2.26881 -3.50275,-1.59215 -6.56764,-3.70175 -9.19468,-6.32881 -2.62706,-2.70665 -4.73666,-5.85114 -6.3288,-9.4335 -1.51255,-3.58232 -2.26882,-7.40348 -2.26882,-11.46349 0,-3.98035 0.75627,-7.72191 2.26882,-11.22468 1.59214,-3.50269 3.70174,-6.56758 6.3288,-9.19468 2.70665,-2.62699 5.81134,-4.69679 9.31409,-6.20939 3.58232,-1.59209 7.40348,-2.38817 11.4635,-2.38823 3.98034,6e-5 7.72189,0.79614 11.22467,2.38823 3.58229,1.5126 6.68699,3.5824 9.31409,6.20939 2.62699,2.6271 4.69679,5.69199 6.20939,9.19468 1.59209,3.50277 2.38817,7.24433 2.38823,11.22468"
         style="font-variant:normal;font-stretch:normal;text-align:start;line-height:125%;writing-mode:lr-tb;text-anchor:start;font-family:Railway;-inkscape-font-specification:Railway"
         id="path3003" />
      <path
         d="m 634.37135,749.56441 -24.00169,0 0,23.52405 c -3e-5,3.10471 0.79605,5.65215 2.38823,7.64233 1.59212,1.9902 3.58231,2.98529 5.97057,2.98528 2.06976,1e-5 4.29877,-0.35822 6.68704,-1.0747 2.38818,-0.79606 4.49778,-1.87076 6.3288,-3.22411 l 0,12.06056 c -1.83102,1.27372 -3.94062,2.26881 -6.3288,2.98528 -2.38827,0.79608 -4.61728,1.19411 -6.68704,1.19411 -2.86591,0 -5.53276,-0.47764 -8.00056,-1.43293 -2.46786,-0.95529 -4.61727,-2.26882 -6.44822,-3.94058 -1.83099,-1.75136 -3.26393,-3.78135 -4.29881,-6.08998 -1.03491,-2.30861 -1.55236,-4.81625 -1.55235,-7.52292 l 0,-27.10639 -11.82173,0 0,-11.94114 11.82173,0 0,-11.34408 11.94114,0 0,11.34408 24.00169,0 0,11.94114"
         style="font-variant:normal;font-stretch:normal;text-align:start;line-height:125%;writing-mode:lr-tb;text-anchor:start;font-family:Railway;-inkscape-font-specification:Railway"
         id="path3005" />
      <path
         d="m 682.9709,756.01263 c -5e-5,-1.27368 -0.39809,-2.5076 -1.19411,-3.70176 -0.79613,-1.19407 -1.87083,-2.22897 -3.22411,-3.10469 -1.27377,-0.87564 -2.78631,-1.59211 -4.53764,-2.14941 -1.7514,-0.5572 -3.62218,-0.83583 -5.61233,-0.83588 -3.58237,5e-5 -6.80648,0.95534 -9.67233,2.86588 -2.86589,1.83101 -4.97549,4.13963 -6.3288,6.92586 l 30.56932,0 m 13.6129,11.46349 c -6e-5,3e-5 -15.04588,3e-5 -45.13751,0 0.47763,2.30865 1.31351,4.45805 2.50764,6.44822 1.2737,1.99021 2.78624,3.70177 4.53763,5.13469 1.83095,1.43295 3.90075,2.58726 6.20939,3.46293 2.30859,0.79609 4.73662,1.19412 7.2841,1.19411 4.13956,1e-5 8.00052,-0.67665 11.58291,-2.02999 3.6619,-1.35332 6.76659,-3.10468 9.31409,-5.2541 l 0,12.41878 c -3.26397,2.06981 -6.84631,3.70176 -10.74703,4.89587 -3.82121,1.19412 -7.80158,1.79117 -11.94114,1.79117 -4.29884,0 -8.35883,-0.83588 -12.17996,-2.50764 -3.74158,-1.67175 -7.00549,-3.94057 -9.79174,-6.80645 -2.78628,-2.86586 -5.01529,-6.20938 -6.68704,-10.03055 -1.59215,-3.90076 -2.38823,-8.00054 -2.38823,-12.29938 0,-3.98035 0.75627,-7.7219 2.26882,-11.22467 1.59214,-3.50269 3.70174,-6.56758 6.3288,-9.19468 2.70665,-2.627 5.81134,-4.69679 9.31409,-6.20939 3.58232,-1.5921 7.40348,-2.38817 11.4635,-2.38823 3.82113,6e-5 7.56268,0.59711 11.22467,1.79117 3.6619,1.19417 6.8462,3.10475 9.55291,5.73175 2.70661,2.6271 4.7366,6.01042 6.08999,10.14997 1.43287,4.13963 1.83091,9.1151 1.19411,14.92642"
         style="font-variant:normal;font-stretch:normal;text-align:start;line-height:125%;writing-mode:lr-tb;text-anchor:start;font-family:Railway;-inkscape-font-specification:Railway"
         id="path3007" />
    </g>
    <g
       id="g3017"
       transform="translate(-11.335887,-10.161292)">
      <rect
         style="fill:#ffcc00"
         y="655.06232"
         x="177.95328"
         height="60.297478"
         width="60.297478"
         id="rect2989" />
      <rect
         style="fill:#00ff00"
         y="655.06232"
         x="259.62894"
         height="60.297478"
         width="60.297478"
         id="rect2989-7" />
      <rect
         style="fill:#de8787"
         y="624.72516"
         x="218.46953"
         height="60.297478"
         width="60.297478"
         id="rect2989-2" />
    </g>
    <g
       style="font-size:39.96548843px;font-style:normal;font-weight:normal;line-height:125%;letter-spacing:0px;word-spacing:0px;fill:#000000;fill-opacity:1;stroke:none;font-family:Sans"
       id="text2992-1">
      <path
         d="m 342.6743,683.34348 0,2.04901 -3.96142,0.46835 c 0.36425,0.45535 0.68949,1.05379 0.97572,1.79532 0.28619,0.72856 0.4293,1.55467 0.42932,2.47833 -2e-5,2.09456 -0.71555,3.76629 -2.14659,5.0152 -1.43107,1.24893 -3.39552,1.87339 -5.89335,1.87338 -0.63748,1e-5 -1.23592,-0.052 -1.79532,-0.15611 -1.37903,0.72854 -2.06853,1.64572 -2.06853,2.75153 0,0.58544 0.24067,1.02126 0.72203,1.30746 0.48135,0.27321 1.30746,0.40981 2.47833,0.40981 l 3.7858,0 c 2.31569,0 4.0915,0.48786 5.32743,1.46358 1.2489,0.97572 1.87336,2.39376 1.87338,4.25414 -2e-5,2.36774 -0.94972,4.16957 -2.8491,5.40548 -1.89942,1.24892 -4.67046,1.87338 -8.31314,1.87339 -2.79707,-10e-6 -4.95666,-0.5204 -6.47878,-1.56116 -1.50911,-1.04077 -2.26367,-2.51085 -2.26367,-4.41025 0,-1.30096 0.41631,-2.42629 1.24892,-3.37599 0.83262,-0.9497 2.00348,-1.59368 3.5126,-1.93193 -0.54641,-0.24718 -1.00825,-0.63096 -1.38553,-1.15135 -0.36427,-0.52038 -0.5464,-1.12532 -0.5464,-1.81483 0,-0.78058 0.20815,-1.46358 0.62446,-2.04902 0.4163,-0.58542 1.07329,-1.15134 1.97096,-1.69775 -1.10583,-0.45533 -2.00999,-1.2294 -2.71251,-2.32221 -0.68951,-1.0928 -1.03426,-2.34172 -1.03426,-3.74677 0,-2.34171 0.70252,-4.14354 2.10756,-5.40549 1.40503,-1.27492 3.39549,-1.91238 5.9714,-1.91241 1.11882,3e-5 2.12706,0.13012 3.02473,0.39029 l 7.39596,0 m -17.05558,24.97843 c -10e-6,1.15785 0.48785,2.036 1.46358,2.63445 0.97571,0.59843 2.37424,0.89765 4.19559,0.89766 2.719,-10e-6 4.72898,-0.40981 6.02995,-1.22941 1.31395,-0.8066 1.97094,-1.90591 1.97096,-3.29793 -2e-5,-1.15786 -0.35779,-1.96445 -1.0733,-2.41979 -0.71554,-0.44232 -2.06203,-0.66349 -4.03948,-0.66349 l -3.88336,0 c -1.47009,0 -2.61494,0.35126 -3.43454,1.05378 -0.81961,0.70252 -1.22941,1.71076 -1.2294,3.02473 m 1.75629,-18.12887 c 0,1.49611 0.42281,2.62795 1.26844,3.3955 0.84561,0.76758 2.02298,1.15136 3.5321,1.15135 3.16132,1e-5 4.74199,-1.53512 4.742,-4.6054 -1e-5,-3.21335 -1.60019,-4.82004 -4.80054,-4.82005 -1.52213,10e-6 -2.69299,0.40982 -3.51259,1.2294 -0.81961,0.81962 -1.22941,2.03602 -1.22941,3.6492"
         style="font-variant:normal;font-stretch:normal;text-align:start;line-height:125%;writing-mode:lr-tb;text-anchor:start;font-family:Open Sans;-inkscape-font-specification:Open Sans"
         id="path3035" />
      <path
         d="m 350.30443,704.73126 -3.23939,0 0,-21.38778 3.23939,0 0,21.38778 m -3.51259,-27.18356 c 0,-0.74151 0.18213,-1.28141 0.5464,-1.61969 0.36427,-0.35123 0.8196,-0.52686 1.36601,-0.52689 0.52038,3e-5 0.96921,0.17566 1.34649,0.52689 0.37728,0.35129 0.56591,0.89119 0.56592,1.61969 -1e-5,0.72857 -0.18864,1.27497 -0.56592,1.63921 -0.37728,0.35129 -0.82611,0.52692 -1.34649,0.52689 -0.54641,3e-5 -1.00174,-0.1756 -1.36601,-0.52689 -0.36427,-0.36424 -0.5464,-0.91064 -0.5464,-1.63921"
         style="font-variant:normal;font-stretch:normal;text-align:start;line-height:125%;writing-mode:lr-tb;text-anchor:start;font-family:Open Sans;-inkscape-font-specification:Open Sans"
         id="path3037" />
      <path
         d="m 364.0816,702.44808 c 0.57241,0 1.12531,-0.039 1.65872,-0.11709 0.53338,-0.0911 0.95619,-0.18213 1.26844,-0.2732 l 0,2.47833 c -0.35128,0.16912 -0.87166,0.30572 -1.56116,0.4098 -0.67651,0.11709 -1.28796,0.17563 -1.83435,0.17563 -4.13706,0 -6.20558,-2.17911 -6.20558,-6.53732 l 0,-12.72339 -3.06376,0 0,-1.56115 3.06376,-1.3465 1.36601,-4.56637 1.87338,0 0,4.95666 6.20558,0 0,2.51736 -6.20558,0 0,12.58679 c -1e-5,1.28795 0.30572,2.27668 0.91718,2.96618 0.61144,0.68952 1.45056,1.03427 2.51736,1.03427"
         style="font-variant:normal;font-stretch:normal;text-align:start;line-height:125%;writing-mode:lr-tb;text-anchor:start;font-family:Open Sans;-inkscape-font-specification:Open Sans"
         id="path3039" />
      <path
         d="m 385.91821,704.73126 0,-13.83571 c -2e-5,-1.74327 -0.39681,-3.04423 -1.19038,-3.90288 -0.7936,-0.85861 -2.03601,-1.28793 -3.72725,-1.28795 -2.25067,2e-5 -3.89638,0.61147 -4.93714,1.83436 -1.02777,1.22292 -1.54164,3.22639 -1.54164,6.01043 l 0,11.18175 -3.23939,0 0,-30.3644 3.23939,0 0,9.19128 c 0,1.10584 -0.052,2.02301 -0.15611,2.75153 l 0.19514,0 c 0.63746,-1.02774 1.54163,-1.83433 2.7125,-2.41979 1.18386,-0.59842 2.53036,-0.89764 4.03948,-0.89766 2.61492,2e-5 4.57286,0.62448 5.87384,1.87338 1.31395,1.23593 1.97093,3.20689 1.97095,5.91287 l 0,13.95279 -3.23939,0"
         style="font-variant:normal;font-stretch:normal;text-align:start;line-height:125%;writing-mode:lr-tb;text-anchor:start;font-family:Open Sans;-inkscape-font-specification:Open Sans"
         id="path3041" />
      <path
         d="m 398.85625,683.34348 0,13.87474 c 0,1.74329 0.39679,3.04425 1.19038,3.90288 0.79358,0.85863 2.03599,1.28795 3.72725,1.28795 2.23764,0 3.87034,-0.61145 4.89811,-1.83435 1.04076,-1.2229 1.56114,-3.21987 1.56116,-5.99093 l 0,-11.24029 3.23939,0 0,21.38778 -2.67348,0 -0.46834,-2.86861 -0.17563,0 c -0.66351,1.05377 -1.58719,1.86037 -2.77105,2.41978 -1.17087,0.55941 -2.51086,0.83912 -4.01996,0.83912 -2.60193,0 -4.55337,-0.61796 -5.85432,-1.85387 -1.28796,-1.23591 -1.93193,-3.21336 -1.93193,-5.93237 l 0,-13.99183 3.27842,0"
         style="font-variant:normal;font-stretch:normal;text-align:start;line-height:125%;writing-mode:lr-tb;text-anchor:start;font-family:Open Sans;-inkscape-font-specification:Open Sans"
         id="path3043" />
      <path
         d="m 430.29395,682.99222 c 2.81006,2e-5 4.98916,0.96273 6.53732,2.88813 1.56114,1.91243 2.34171,4.62493 2.34173,8.13751 -2e-5,3.5126 -0.7871,6.24461 -2.36124,8.19604 -1.56117,1.93844 -3.73377,2.90765 -6.51781,2.90765 -1.39204,0 -2.66698,-0.25369 -3.82482,-0.76106 -1.14485,-0.52038 -2.10756,-1.31397 -2.88813,-2.38076 l -0.23417,0 -0.68301,2.75153 -2.32221,0 0,-30.3644 3.23939,0 0,7.37644 c -1e-5,1.65224 -0.0521,3.13533 -0.15612,4.44928 l 0.15612,0 c 1.5091,-2.13355 3.74675,-3.20034 6.71295,-3.20036 m -0.46834,2.7125 c -2.21165,2e-5 -3.80532,0.63749 -4.78103,1.91241 -0.97573,1.26195 -1.46359,3.39552 -1.46358,6.40073 -1e-5,3.00522 0.50086,5.15831 1.50261,6.45926 1.00173,1.28796 2.60841,1.93193 4.82005,1.93193 1.99046,0 3.47355,-0.72203 4.44929,-2.1661 0.9757,-1.45707 1.46356,-3.54511 1.46358,-6.26412 -2e-5,-2.78404 -0.48788,-4.85907 -1.46358,-6.22509 -0.97574,-1.36599 -2.48485,-2.049 -4.52734,-2.04902"
         style="font-variant:normal;font-stretch:normal;text-align:start;line-height:125%;writing-mode:lr-tb;text-anchor:start;font-family:Open Sans;-inkscape-font-specification:Open Sans"
         id="path3045" />
      <path
         d="m 444.36383,702.66274 c 0,-0.87164 0.19514,-1.52863 0.58543,-1.97096 0.4033,-0.45533 0.97572,-0.683 1.71727,-0.683 0.75455,0 1.33998,0.22767 1.7563,0.683 0.42931,0.44233 0.64397,1.09932 0.64397,1.97096 0,0.84562 -0.21466,1.4961 -0.64397,1.95144 -0.42933,0.45533 -1.01476,0.683 -1.7563,0.683 -0.66349,0 -1.2164,-0.20165 -1.65872,-0.60495 -0.42932,-0.4163 -0.64398,-1.0928 -0.64398,-2.02949"
         style="font-variant:normal;font-stretch:normal;text-align:start;line-height:125%;writing-mode:lr-tb;text-anchor:start;font-family:Open Sans;-inkscape-font-specification:Open Sans"
         id="path3047" />
      <path
         d="m 464.01483,705.12155 c -3.09629,0 -5.49656,-0.9497 -7.20081,-2.8491 -1.69125,-1.91241 -2.53688,-4.6119 -2.53687,-8.09848 -1e-5,-3.57762 0.85863,-6.34216 2.5759,-8.29362 1.73027,-1.95142 4.18908,-2.92713 7.37644,-2.92716 1.02774,3e-5 2.0555,0.11061 3.08327,0.33175 1.02775,0.22118 1.83434,0.48137 2.41979,0.78057 l -0.99524,2.75153 c -0.71554,-0.28619 -1.49611,-0.52036 -2.34172,-0.70251 -0.84564,-0.19513 -1.59369,-0.2927 -2.24416,-0.29272 -4.34521,2e-5 -6.51781,2.77106 -6.51781,8.31313 0,2.62795 0.52688,4.64444 1.58067,6.04947 1.06678,1.40504 2.64094,2.10755 4.72248,2.10755 1.7823,0 3.61015,-0.38378 5.48355,-1.15135 l 0,2.86862 c -1.43107,0.74155 -3.2329,1.11232 -5.40549,1.11232"
         style="font-variant:normal;font-stretch:normal;text-align:start;line-height:125%;writing-mode:lr-tb;text-anchor:start;font-family:Open Sans;-inkscape-font-specification:Open Sans"
         id="path3049" />
      <path
         d="m 492.95468,694.01786 c -2e-5,3.48658 -0.87817,6.21209 -2.63444,8.17653 -1.75632,1.95144 -4.18261,2.92716 -7.27887,2.92716 -1.91243,0 -3.61018,-0.44883 -5.09326,-1.34649 -1.4831,-0.89766 -2.62795,-2.18561 -3.43454,-3.86385 -0.80659,-1.67824 -1.20989,-3.64268 -1.20989,-5.89335 0,-3.48656 0.87164,-6.19906 2.61493,-8.13751 1.74328,-1.95142 4.16306,-2.92713 7.25936,-2.92716 2.99219,3e-5 5.36644,0.99526 7.12275,2.98571 1.76929,1.99048 2.65394,4.68347 2.65396,8.07896 m -16.29452,0 c -1e-5,2.73202 0.54639,4.81355 1.63921,6.2446 1.09279,1.43106 2.69948,2.14659 4.82005,2.14659 2.12055,0 3.72724,-0.70902 4.82006,-2.12707 1.1058,-1.43105 1.6587,-3.51909 1.65872,-6.26412 -2e-5,-2.719 -0.55292,-4.78101 -1.65872,-6.18607 -1.09282,-1.41803 -2.71252,-2.12705 -4.85909,-2.12707 -2.12057,2e-5 -3.72075,0.69604 -4.80054,2.08804 -1.0798,1.39205 -1.6197,3.46708 -1.61969,6.2251"
         style="font-variant:normal;font-stretch:normal;text-align:start;line-height:125%;writing-mode:lr-tb;text-anchor:start;font-family:Open Sans;-inkscape-font-specification:Open Sans"
         id="path3051" />
      <path
         d="m 525.89499,704.73126 0,-13.91376 c -3e-5,-1.70425 -0.3643,-2.97919 -1.09281,-3.82483 -0.72857,-0.85861 -1.8604,-1.28793 -3.39551,-1.28795 -2.01651,2e-5 -3.5061,0.57895 -4.46879,1.73679 -0.96273,1.15787 -1.44409,2.94018 -1.44407,5.34694 l 0,11.94281 -3.23939,0 0,-13.91376 c -2e-5,-1.70425 -0.36428,-2.97919 -1.0928,-3.82483 -0.72856,-0.85861 -1.8669,-1.28793 -3.41502,-1.28795 -2.02951,2e-5 -3.51911,0.61147 -4.4688,1.83436 -0.9367,1.20991 -1.40505,3.20037 -1.40504,5.9714 l 0,11.22078 -3.23939,0 0,-21.38778 2.63445,0 0.52688,2.92716 0.15612,0 c 0.61144,-1.04075 1.47008,-1.85385 2.5759,-2.4393 1.11881,-0.58541 2.36774,-0.87812 3.74676,-0.87815 3.34345,3e-5 5.52907,1.20992 6.55684,3.62968 l 0.15612,0 c 0.63745,-1.1188 1.56113,-2.00346 2.77104,-2.65396 1.20987,-0.65046 2.58889,-0.97569 4.13705,-0.97572 2.41976,3e-5 4.22809,0.62449 5.42501,1.87339 1.20986,1.23593 1.8148,3.21989 1.81484,5.95189 l 0,13.95279 -3.23939,0"
         style="font-variant:normal;font-stretch:normal;text-align:start;line-height:125%;writing-mode:lr-tb;text-anchor:start;font-family:Open Sans;-inkscape-font-specification:Open Sans"
         id="path3053" />
      <path
         d="m 546.63879,676.20121 -10.63535,28.53005 -3.23939,0 10.63535,-28.53005 3.23939,0"
         style="font-variant:normal;font-stretch:normal;text-align:start;line-height:125%;writing-mode:lr-tb;text-anchor:start;font-family:Open Sans;-inkscape-font-specification:Open Sans"
         id="path3055" />
      <path
         d="m 565.04087,701.86265 -0.17562,0 c -1.49613,2.1726 -3.73377,3.2589 -6.71296,3.2589 -2.79707,0 -4.97618,-0.9562 -6.53732,-2.86862 -1.54815,-1.9124 -2.32222,-4.63141 -2.32221,-8.15702 -1e-5,-3.52558 0.78057,-6.2641 2.34172,-8.21556 1.56115,-1.95142 3.73375,-2.92713 6.51781,-2.92716 2.90113,3e-5 5.12577,1.0538 6.67393,3.16134 l 0.25368,0 -0.1366,-1.54164 -0.0781,-1.50261 0,-8.70342 3.23939,0 0,30.3644 -2.63445,0 -0.42932,-2.86861 m -6.47878,0.5464 c 2.21162,0 3.8118,-0.59844 4.80055,-1.79533 1.00172,-1.20988 1.50259,-3.15482 1.50261,-5.8348 l 0,-0.68301 c -2e-5,-3.03122 -0.5074,-5.19081 -1.52213,-6.47878 -1.00175,-1.30094 -2.60844,-1.95142 -4.82005,-1.95144 -1.89942,2e-5 -3.35649,0.74157 -4.37123,2.22465 -1.00174,1.4701 -1.50261,3.55163 -1.50261,6.2446 0,2.73203 0.50087,4.79405 1.50261,6.18607 1.00173,1.39203 2.47181,2.08804 4.41025,2.08804"
         style="font-variant:normal;font-stretch:normal;text-align:start;line-height:125%;writing-mode:lr-tb;text-anchor:start;font-family:Open Sans;-inkscape-font-specification:Open Sans"
         id="path3057" />
      <path
         d="m 602.23532,704.73126 0,-13.91376 c -3e-5,-1.70425 -0.3643,-2.97919 -1.09281,-3.82483 -0.72856,-0.85861 -1.8604,-1.28793 -3.3955,-1.28795 -2.01652,2e-5 -3.50611,0.57895 -4.4688,1.73679 -0.96273,1.15787 -1.44409,2.94018 -1.44407,5.34694 l 0,11.94281 -3.23939,0 0,-13.91376 c -10e-6,-1.70425 -0.36428,-2.97919 -1.0928,-3.82483 -0.72856,-0.85861 -1.86689,-1.28793 -3.41502,-1.28795 -2.02951,2e-5 -3.51911,0.61147 -4.4688,1.83436 -0.9367,1.20991 -1.40504,3.20037 -1.40504,5.9714 l 0,11.22078 -3.23939,0 0,-21.38778 2.63445,0 0.52689,2.92716 0.15611,0 c 0.61145,-1.04075 1.47008,-1.85385 2.5759,-2.4393 1.11882,-0.58541 2.36774,-0.87812 3.74677,-0.87815 3.34345,3e-5 5.52906,1.20992 6.55683,3.62968 l 0.15612,0 c 0.63745,-1.1188 1.56113,-2.00346 2.77104,-2.65396 1.20987,-0.65046 2.58889,-0.97569 4.13706,-0.97572 2.41975,3e-5 4.22809,0.62449 5.425,1.87339 1.20986,1.23593 1.8148,3.21989 1.81484,5.95189 l 0,13.95279 -3.23939,0"
         style="font-variant:normal;font-stretch:normal;text-align:start;line-height:125%;writing-mode:lr-tb;text-anchor:start;font-family:Open Sans;-inkscape-font-specification:Open Sans"
         id="path3059" />
      <path
         d="m 622.10099,705.12155 c -1.39204,0 -2.66698,-0.25369 -3.82482,-0.76106 -1.14486,-0.52038 -2.10757,-1.31397 -2.88813,-2.38076 l -0.23418,0 c 0.15611,1.24893 0.23417,2.4328 0.23418,3.55162 l 0,8.801 -3.23939,0 0,-30.98887 2.63444,0 0.44883,2.92716 0.15612,0 c 0.8326,-1.17084 1.80182,-2.01647 2.90764,-2.53687 1.10581,-0.52036 2.37424,-0.78055 3.80531,-0.78058 2.83608,3e-5 5.02169,0.96924 6.55684,2.90765 1.54812,1.93845 2.32219,4.65745 2.32221,8.15702 -2e-5,3.5126 -0.7871,6.24461 -2.36124,8.19604 -1.56117,1.93844 -3.73377,2.90765 -6.51781,2.90765 m -0.46835,-19.41683 c -2.18562,2e-5 -3.76628,0.60497 -4.742,1.81484 -0.97572,1.20991 -1.47659,3.13533 -1.5026,5.77626 l 0,0.72204 c -1e-5,3.00522 0.50086,5.15831 1.5026,6.45926 1.00173,1.28796 2.60842,1.93193 4.82006,1.93193 1.84735,0 3.29141,-0.74805 4.3322,-2.24416 1.05376,-1.49609 1.58064,-3.55811 1.58066,-6.18606 -2e-5,-2.66696 -0.5269,-4.70946 -1.58066,-6.12752 -1.04079,-1.43104 -2.51087,-2.14657 -4.41026,-2.14659"
         style="font-variant:normal;font-stretch:normal;text-align:start;line-height:125%;writing-mode:lr-tb;text-anchor:start;font-family:Open Sans;-inkscape-font-specification:Open Sans"
         id="path3061" />
      <path
         d="m 655.09984,694.01786 c -3e-5,3.48658 -0.87817,6.21209 -2.63445,8.17653 -1.75631,1.95144 -4.1826,2.92716 -7.27887,2.92716 -1.91242,0 -3.61017,-0.44883 -5.09326,-1.34649 -1.4831,-0.89766 -2.62794,-2.18561 -3.43453,-3.86385 -0.8066,-1.67824 -1.2099,-3.64268 -1.20989,-5.89335 -10e-6,-3.48656 0.87164,-6.19906 2.61493,-8.13751 1.74328,-1.95142 4.16306,-2.92713 7.25935,-2.92716 2.9922,3e-5 5.36645,0.99526 7.12276,2.98571 1.76928,1.99048 2.65393,4.68347 2.65396,8.07896 m -16.29453,0 c 0,2.73202 0.5464,4.81355 1.63921,6.2446 1.0928,1.43106 2.69949,2.14659 4.82006,2.14659 2.12055,0 3.72723,-0.70902 4.82006,-2.12707 1.10579,-1.43105 1.6587,-3.51909 1.65872,-6.26412 -2e-5,-2.719 -0.55293,-4.78101 -1.65872,-6.18607 -1.09283,-1.41803 -2.71252,-2.12705 -4.85909,-2.12707 -2.12057,2e-5 -3.72075,0.69604 -4.80054,2.08804 -1.0798,1.39205 -1.6197,3.46708 -1.6197,6.2251"
         style="font-variant:normal;font-stretch:normal;text-align:start;line-height:125%;writing-mode:lr-tb;text-anchor:start;font-family:Open Sans;-inkscape-font-specification:Open Sans"
         id="path3063" />
      <path
         d="m 670.73087,705.12155 c -1.39204,0 -2.66698,-0.25369 -3.82482,-0.76106 -1.14485,-0.52038 -2.10756,-1.31397 -2.88813,-2.38076 l -0.23417,0 c 0.1561,1.24893 0.23416,2.4328 0.23417,3.55162 l 0,8.801 -3.23939,0 0,-30.98887 2.63444,0 0.44883,2.92716 0.15612,0 c 0.83261,-1.17084 1.80182,-2.01647 2.90764,-2.53687 1.10581,-0.52036 2.37424,-0.78055 3.80531,-0.78058 2.83608,3e-5 5.02169,0.96924 6.55684,2.90765 1.54812,1.93845 2.32219,4.65745 2.32221,8.15702 -2e-5,3.5126 -0.7871,6.24461 -2.36124,8.19604 -1.56117,1.93844 -3.73377,2.90765 -6.51781,2.90765 m -0.46834,-19.41683 c -2.18563,2e-5 -3.76629,0.60497 -4.742,1.81484 -0.97573,1.20991 -1.4766,3.13533 -1.50261,5.77626 l 0,0.72204 c -10e-6,3.00522 0.50086,5.15831 1.50261,6.45926 1.00173,1.28796 2.60841,1.93193 4.82005,1.93193 1.84735,0 3.29142,-0.74805 4.3322,-2.24416 1.05376,-1.49609 1.58065,-3.55811 1.58067,-6.18606 -2e-5,-2.66696 -0.52691,-4.70946 -1.58067,-6.12752 -1.04078,-1.43104 -2.51087,-2.14657 -4.41025,-2.14659"
         style="font-variant:normal;font-stretch:normal;text-align:start;line-height:125%;writing-mode:lr-tb;text-anchor:start;font-family:Open Sans;-inkscape-font-specification:Open Sans"
         id="path3065" />
      <path
         d="m 696.09956,676.20121 -10.63535,28.53005 -3.23939,0 10.63535,-28.53005 3.23939,0"
         style="font-variant:normal;font-stretch:normal;text-align:start;line-height:125%;writing-mode:lr-tb;text-anchor:start;font-family:Open Sans;-inkscape-font-specification:Open Sans"
         id="path3067" />
    </g>
  </g>
</svg>
